<svg width="32" height="43" viewBox="0 0 32 43" fill="none" xmlns="http://www.w3.org/2000/svg">
<path d="M28.6171 19.0922C30.5075 17.7966 31.4538 15.6519 31.4538 12.6604C31.4538 8.17213 25.954 0.500001 20.9937 0.5L8.30258 0.499999C3.45056 0.499998 0.499996 4.75615 0.499996 8.17213L0.499995 22.5988C0.499995 23.4784 0.849411 24.322 1.47137 24.9439C2.09333 25.5659 2.93689 25.9153 3.81648 25.9153L3.82753 25.9153C4.70419 25.9153 5.54494 25.5671 6.16482 24.9472C6.78471 24.3273 7.13296 23.4865 7.13296 22.6099" stroke="#F2F2F2" stroke-linecap="round"/>
<path d="M27.052 16.5905L27.052 39.1868C27.0519 39.6227 26.9658 40.0543 26.7986 40.4568C26.6314 40.8594 26.3865 41.225 26.0778 41.5328C25.7691 41.8405 25.4028 42.0844 24.9997 42.2504C24.5966 42.4163 24.1648 42.5012 23.7289 42.5C22.8466 42.4976 22.0012 42.1454 21.3782 41.5206C20.7552 40.8957 20.4055 40.0493 20.4058 39.1669L20.4058 21.9555" stroke="#F2F2F2" stroke-linecap="round"/>
<path d="M20.4063 22.6009L20.4063 27.0141C20.3839 27.8832 20.0229 28.7092 19.4003 29.316C18.7776 29.9228 17.9426 30.2624 17.0732 30.2624C16.2038 30.2624 15.3688 29.9228 14.7461 29.316C14.1235 28.7092 13.7625 27.8832 13.7401 27.0141L13.7401 22.6009" stroke="#F2F2F2" stroke-linecap="round" stroke-linejoin="round"/>
<path d="M13.7663 22.9239L13.7663 25.9231C13.7663 26.8027 13.4168 27.6463 12.7949 28.2682C12.1729 28.8902 11.3294 29.2396 10.4498 29.2396C9.57019 29.2396 8.72662 28.8902 8.10466 28.2682C7.4827 27.6463 7.13329 26.8027 7.13329 25.9231L7.13329 22.6066" stroke="#F2F2F2" stroke-linecap="round" stroke-linejoin="round"/>
</svg>
