<svg width="160" height="52" viewBox="0 0 160 52" fill="none" xmlns="http://www.w3.org/2000/svg">
<path d="M126.714 16.7132C126.036 17.2223 125.2 17.4769 124.206 17.4769C123.212 17.4769 122.468 17.2223 121.974 16.7132C121.484 16.1785 121.32 15.4657 121.482 14.5747C121.643 13.6836 122.063 12.9835 122.741 12.4743C123.424 11.9397 124.263 11.6724 125.257 11.6724C126.225 11.6724 126.967 11.9397 127.482 12.4743C127.997 13.009 128.176 13.7091 128.019 14.5747C127.858 15.4657 127.423 16.1785 126.714 16.7132Z" fill="#AAFF00"/>
<path d="M113.011 38.9765L113.785 34.6995H119.214L121.185 23.816L116.74 24.0833L117.514 19.8063L123.7 19.4245C124.678 19.3736 125.376 19.6027 125.793 20.1118C126.211 20.621 126.334 21.3466 126.164 22.2885L123.916 34.6995H129.345L128.571 38.9765H113.011Z" fill="#AAFF00"/>
<path d="M146.247 34.6995L139.258 35.0813L141.249 24.0833H147.404L148.179 19.8063H142.023L143.047 14.1546L137.838 15.6821L137.092 19.8063H132.657L131.882 24.0833H136.317L134.091 36.3797C133.911 37.3726 134.03 38.1236 134.447 38.6328C134.865 39.1419 135.56 39.3838 136.533 39.3583L145.472 38.9765L146.247 34.6995Z" fill="#AAFF00"/>
<path fill-rule="evenodd" clip-rule="evenodd" d="M146.473 8.72468e-07C148.664 -2.74874e-05 150.456 -5.07181e-05 151.891 0.118793C153.376 0.241806 154.69 0.504195 155.844 1.15125C157.65 2.16391 158.975 3.77976 159.629 5.76723C160.047 7.03713 160.064 8.39693 159.914 9.90253C159.77 11.3571 159.446 13.1469 159.049 15.3353L155.187 36.6645C154.791 38.8531 154.467 40.6429 154.085 42.0975C153.689 43.6031 153.18 44.9629 152.302 46.2328C150.928 48.2202 149.018 49.8361 146.845 50.8488C145.457 51.4958 144.048 51.7582 142.518 51.8812C141.04 52.0001 139.248 52 137.057 52H115.704C113.513 52 111.721 52.0001 110.286 51.8812C108.801 51.7582 107.487 51.4958 106.333 50.8488C104.527 49.8361 103.202 48.2202 102.548 46.2328C102.13 44.9629 102.113 43.6031 102.263 42.0975C102.407 40.6429 102.731 38.8531 103.128 36.6646L106.99 15.3354C107.386 13.1469 107.71 11.3571 108.092 9.90253C108.488 8.39693 108.997 7.03713 109.875 5.76723C111.248 3.77976 113.159 2.16391 115.332 1.15125C116.72 0.504195 118.129 0.241806 119.659 0.118793C121.137 -5.07181e-05 122.928 -2.74874e-05 125.119 8.72468e-07H146.473ZM111.849 6.87383C110.647 8.61186 110.235 10.8871 109.412 15.4375L105.586 36.5625C104.762 41.1129 104.351 43.3881 104.922 45.1262C105.425 46.655 106.445 47.898 107.834 48.6769C109.414 49.5625 111.692 49.5625 116.247 49.5625H137.397C141.952 49.5625 144.23 49.5625 146.13 48.6769C147.802 47.898 149.271 46.655 150.328 45.1262C151.529 43.3884 151.941 41.1137 152.765 36.5647L152.765 36.5644L152.765 36.5637L152.765 36.5625L156.59 15.4375C157.414 10.8871 157.826 8.61186 157.255 6.87383C156.751 5.34501 155.732 4.10205 154.343 3.32307C152.763 2.4375 150.485 2.4375 145.93 2.4375H124.78C120.225 2.4375 117.947 2.4375 116.046 3.32307C114.375 4.10205 112.905 5.34501 111.849 6.87383Z" fill="#AAFF00"/>
<path d="M4.14497 17.6364C5.51264 15.8543 6.47658 13.4867 7.03679 10.5335H16.7568L12.3621 34.6695H19.3374L18.545 39.3016H10.1101L10.0903 39.3017C10.0106 39.3019 9.82409 39.3023 9.64728 39.2867C9.43168 39.2676 8.97362 39.209 8.48655 38.9217C7.9215 38.5885 7.49088 38.0628 7.27103 37.4379C7.08151 36.8992 7.1081 36.4311 7.12888 36.2123C7.14591 36.0329 7.18031 35.8467 7.195 35.7672L7.19864 35.7474L11.0159 14.7957L12.4176 11.7937H11.167C10.7076 13.6267 10.2052 15.2051 9.65964 16.529C9.13956 17.8528 8.42834 19.1766 7.52596 20.5005C6.42619 19.5383 5.04336 18.3817 4.14497 17.6364Z" fill="#AAFF00"/>
<path d="M6.07136 34.6699H0.812949L0 39.3017H6.89345C6.52191 38.8949 6.23203 38.4131 6.04542 37.8826C5.76299 37.0798 5.80465 36.3881 5.8334 36.0854C5.85609 35.8464 5.89928 35.6129 5.91465 35.5298L5.91887 35.5069L6.07136 34.6699Z" fill="#AAFF00"/>
<path fill-rule="evenodd" clip-rule="evenodd" d="M23.6295 29.1623C24.1735 26.1582 25.507 23.7906 27.63 22.0594C29.7577 20.3028 32.2743 19.4245 35.1799 19.4245C38.0855 19.4245 40.2655 20.2646 41.7199 21.9448C43.1998 23.6251 43.6792 25.9036 43.1583 28.7804L42.8679 30.3843H28.0724C27.8514 31.8863 28.1167 33.0956 28.8683 34.0121C29.65 34.9031 30.9839 35.3487 32.87 35.3487C35.5972 35.3487 37.4023 34.3176 38.2854 32.2555H43.2173C42.5679 34.0121 41.2788 35.6414 39.3502 37.1435C37.4261 38.6201 35.0241 39.3583 32.144 39.3583C28.7541 39.3583 26.3551 38.3909 24.9468 36.4561C23.5385 34.5213 23.0994 32.09 23.6295 29.1623ZM28.6118 27.4057H38.7431C38.9505 26.26 38.7005 25.3181 37.9931 24.5798C37.3112 23.8415 36.1291 23.4723 34.447 23.4723C32.7648 23.4723 31.4213 23.8542 30.4164 24.618C29.4162 25.3563 28.8146 26.2855 28.6118 27.4057Z" fill="#AAFF00"/>
<path fill-rule="evenodd" clip-rule="evenodd" d="M71.2067 19.8063H72.8889L72.1144 24.0833H70.6999C69.8333 24.0833 69.1129 24.2615 68.5386 24.618C68.9703 25.3308 69.0755 26.2982 68.8542 27.5202C68.5223 29.3532 67.4892 30.9062 65.755 32.1791C64.0462 33.452 61.6596 34.5976 58.5951 35.616C60.1984 35.4887 61.5933 35.5269 62.7798 35.7305C63.9663 35.9342 64.911 36.4179 65.6138 37.1817C66.3166 37.9454 66.5504 38.9765 66.3153 40.2748C66.2263 40.7664 66.0932 41.2232 65.916 41.645H58.2199C58.8639 41.5428 59.4449 41.3789 59.9628 41.1532C60.5095 40.9495 60.8846 40.7076 61.0882 40.4276C61.3173 40.1476 61.4688 39.8039 61.5425 39.3965C61.6394 38.8619 61.5393 38.4291 61.2424 38.0982C60.9455 37.7672 60.4217 37.5635 59.6709 37.4872C58.9456 37.4108 58.2261 37.3726 57.5124 37.3726C56.7988 37.3726 55.8246 37.4744 54.5898 37.6781C53.3851 37.8563 52.4121 38.0218 51.6708 38.1745C50.9596 38.3018 49.9692 38.4928 48.6997 38.7473L48.5822 35.8069C53.4311 35.0686 57.1388 34.3685 59.7055 33.7066L59.9337 32.4464C58.1547 32.981 56.4682 33.2865 54.8741 33.3629C53.2847 33.4138 51.8873 33.2483 50.6821 32.8665C49.507 32.4591 48.627 31.759 48.0421 30.7661C47.4874 29.7478 47.3437 28.5004 47.6111 27.0238C48.0582 24.5543 49.3678 22.6704 51.54 21.372C53.7376 20.0736 56.3657 19.4245 59.4242 19.4245C62.3807 19.4245 64.6567 20.0864 66.2521 21.4102C67.5672 20.341 69.2187 19.8063 71.2067 19.8063ZM57.6244 30.8425C61.422 30.8425 63.5352 29.6587 63.9639 27.2911C64.3972 24.898 62.715 23.7015 58.9174 23.7015C55.0688 23.7015 52.9278 24.898 52.4945 27.2911C52.0658 29.6587 53.7757 30.8425 57.6244 30.8425Z" fill="#AAFF00"/>
<path fill-rule="evenodd" clip-rule="evenodd" d="M75.861 29.7733C74.5899 30.7407 73.8045 32.0518 73.5048 33.7066C73.3988 34.2921 73.382 34.8777 73.4544 35.4632C73.5314 36.0233 73.7289 36.6216 74.0469 37.258C74.365 37.8945 74.961 38.4037 75.8349 38.7855C76.7342 39.1674 77.8721 39.3583 79.2484 39.3583C83.4793 39.3583 86.4039 37.4235 88.0221 33.5538H89.322L88.1632 35.7305L88.0457 36.3797C87.8982 37.1944 87.9996 37.8308 88.3499 38.2891C88.7257 38.7473 89.3341 38.9765 90.1752 38.9765H94.0748L94.8492 34.6995H92.0584L93.2338 28.2076C93.7455 25.3817 93.2708 23.2178 91.8096 21.7157C90.353 20.1882 88.2357 19.4245 85.4575 19.4245C82.7559 19.4245 80.4349 20.1373 78.4946 21.563C76.5588 22.9632 75.3858 24.7962 74.9756 27.062H79.6398C79.8565 25.8654 80.4128 24.9744 81.309 24.3888C82.2352 23.7778 83.3738 23.4723 84.7246 23.4723C87.6047 23.4723 88.8663 24.6689 88.5094 27.062L81.712 27.8639C79.1079 28.1694 77.1576 28.8059 75.861 29.7733ZM79.0109 34.5467C78.5958 34.1648 78.4551 33.6048 78.5888 32.8665C78.7132 32.1791 79.0429 31.6954 79.5779 31.4153C80.1175 31.1098 80.9468 30.8934 82.0658 30.7661L87.9701 30.0406C87.6981 31.5426 86.9161 32.7646 85.6241 33.7066C84.3367 34.6231 82.7627 35.0813 80.9021 35.0813C80.0865 35.0813 79.4561 34.9031 79.0109 34.5467Z" fill="#AAFF00"/>
</svg>
