<svg width="32" height="43" viewBox="0 0 32 43" fill="none" xmlns="http://www.w3.org/2000/svg">
<path d="M28.6169 19.0924C30.5073 17.7968 31.4536 15.6521 31.4536 12.6607C31.4536 8.17237 25.9538 0.500244 20.9934 0.500244L8.30238 0.500242C3.45037 0.500242 0.499812 4.75639 0.499812 8.17236L0.499811 22.599C0.499811 23.4786 0.849226 24.3222 1.47119 24.9442C2.09315 25.5661 2.9367 25.9155 3.81629 25.9155L3.82734 25.9155C4.704 25.9155 5.54474 25.5673 6.16463 24.9474C6.78452 24.3275 7.13277 23.4868 7.13277 22.6101" stroke="#F2F2F2" stroke-linecap="round"/>
<path d="M27.0518 16.5906L27.0518 39.1868C27.0516 39.6227 26.9655 40.0543 26.7983 40.4568C26.6311 40.8594 26.3862 41.225 26.0775 41.5328C25.7688 41.8405 25.4025 42.0844 24.9994 42.2504C24.5964 42.4163 24.1645 42.5012 23.7286 42.5C22.8463 42.4976 22.0009 42.1454 21.3779 41.5206C20.7549 40.8957 20.4052 40.0493 20.4055 39.1669L20.4055 21.9555" stroke="#F2F2F2" stroke-linecap="round"/>
<path d="M20.4063 22.6008L20.4063 27.0139C20.3839 27.883 20.0229 28.709 19.4002 29.3158C18.7776 29.9226 17.9426 30.2622 17.0732 30.2622C16.2038 30.2622 15.3688 29.9226 14.7461 29.3158C14.1235 28.709 13.7625 27.883 13.7401 27.0139L13.7401 22.6008" stroke="#F2F2F2" stroke-linecap="round" stroke-linejoin="round"/>
<path d="M13.7661 22.9241L13.7661 25.9233C13.7661 26.8029 13.4167 27.6464 12.7947 28.2684C12.1728 28.8903 11.3292 29.2397 10.4496 29.2397C9.57005 29.2397 8.72649 28.8903 8.10453 28.2684C7.48257 27.6464 7.13316 26.8029 7.13316 25.9233L7.13316 22.6068" stroke="#F2F2F2" stroke-linecap="round" stroke-linejoin="round"/>
</svg>
