<svg width="305" height="16" viewBox="0 0 305 16" fill="none" xmlns="http://www.w3.org/2000/svg">
<path d="M2.2793 8C9.9716 2.66667 17.6639 2.66667 25.3562 8C33.0485 13.3333 40.7408 13.3333 48.4331 8C56.1254 2.66667 63.8178 2.66667 71.5101 8C79.2024 13.3333 86.8947 13.3333 94.587 8C102.279 2.66667 109.972 2.66667 117.664 8C125.356 13.3333 133.049 13.3333 140.741 8C148.433 2.66667 156.125 2.66667 163.818 8C171.51 13.3333 179.202 13.3333 186.895 8C194.587 2.66667 202.279 2.66667 209.972 8C217.664 13.3333 225.356 13.3333 233.049 8C240.741 2.66667 248.433 2.66667 256.125 8C263.818 13.3333 271.51 13.3333 279.202 8C286.895 2.66667 294.587 2.66667 302.279 8" stroke="#AAFF00" stroke-width="8"/>
</svg>
